<svg width="367" height="174" viewBox="0 0 367 174" fill="none" xmlns="http://www.w3.org/2000/svg">
<path d="M54.3867 171H31.2812L66.4863 69.1445H94.1719L129.309 171H106.271L98.6836 147.758H61.9062L54.3867 171ZM67.375 130.941H93.2148L80.7051 92.3867H79.8848L67.375 130.941ZM162.258 69.1445V171H141.066V69.1445H162.258ZM214.006 172.504C206.167 172.504 199.423 170.909 193.771 167.719C188.12 164.529 183.768 159.994 180.715 154.115C177.661 148.191 176.135 141.195 176.135 133.129C176.135 125.29 177.639 118.409 180.646 112.484C183.7 106.56 187.984 101.934 193.498 98.6074C199.012 95.2806 205.507 93.6172 212.98 93.6172C219.725 93.6172 225.809 95.0527 231.232 97.9238C236.701 100.795 241.031 105.102 244.221 110.844C247.456 116.586 249.074 123.786 249.074 132.445V138.188H196.984C197.212 143.975 198.898 148.51 202.043 151.791C205.188 155.072 209.289 156.713 214.348 156.713C217.857 156.713 220.865 155.961 223.371 154.457C225.923 152.953 227.746 150.766 228.84 147.895L248.391 149.193C246.887 156.212 243.127 161.863 237.111 166.146C231.141 170.385 223.439 172.504 214.006 172.504ZM197.121 125.131H228.771C228.27 120.3 226.721 116.472 224.123 113.646C221.525 110.821 217.88 109.408 213.186 109.408C208.446 109.408 204.686 110.889 201.906 113.852C199.172 116.768 197.577 120.528 197.121 125.131ZM263.02 171V94.5742H283.527V107.973H284.348C285.715 103.233 288.039 99.6556 291.32 97.2402C294.602 94.7793 298.384 93.5488 302.668 93.5488C303.716 93.5488 304.855 93.6172 306.086 93.7539C307.316 93.8906 308.387 94.0729 309.299 94.3008V113.031C308.296 112.712 306.906 112.462 305.129 112.279C303.397 112.051 301.802 111.938 300.344 111.938C295.695 111.938 291.844 113.419 288.791 116.381C285.738 119.298 284.211 123.103 284.211 127.797V171H263.02ZM360.91 94.5742V110.57H346.418V147.484C346.418 152.452 348.833 154.936 353.664 154.936C354.484 154.936 355.373 154.867 356.33 154.73C357.333 154.594 358.199 154.434 358.928 154.252L362.277 170.111C357.766 171.433 353.391 172.094 349.152 172.094C341.587 172.094 335.708 170.18 331.516 166.352C327.368 162.523 325.295 157.169 325.295 150.287V110.57H314.904V94.5742H325.295V76.3906H346.418V94.5742H360.91Z" fill="black"/>
<path d="M4.1773 82.1668L6.03992 83.5907L6.05361 83.6007C6.44193 83.8975 6.63788 84.0473 6.8565 84.1541C7.05264 84.2498 7.26179 84.3195 7.47754 84.3618C7.72072 84.4095 7.97404 84.4095 8.48253 84.4095H19.0927C20.459 84.4095 21.143 84.4095 21.6654 84.6639C22.1253 84.8878 22.4995 85.2455 22.7338 85.685C23 86.1841 23 86.8369 23 88.1425V97.026C23 98.3316 23 98.9853 22.7338 99.4845C22.4995 99.924 22.1245 100.281 21.6646 100.505C21.1417 100.76 20.4581 100.76 19.0891 100.76H4.91135C3.54233 100.76 2.85731 100.76 2.33442 100.505C1.87447 100.281 1.50079 99.924 1.26643 99.4845C1 98.9848 1 98.3303 1 97.0222V83.6257C1 82.3811 1 81.7589 1.267 81.4393C1.49921 81.1613 1.8512 80.9996 2.22342 81C2.65141 81.0005 3.1602 81.3894 4.1773 82.1668Z" fill="#090909" stroke="#090909" stroke-width="2" stroke-linecap="round" stroke-linejoin="round"/>
<path d="M1 112.259C1 110.05 2.79086 108.259 5 108.259H19C21.2091 108.259 23 110.05 23 112.259V170.982H1V112.259Z" fill="black"/>
</svg>
