<svg width="38" height="133" viewBox="0 0 38 133" fill="none" xmlns="http://www.w3.org/2000/svg">
<path d="M6.19922 2.71147L9.24714 4.79986L9.26955 4.8146C9.90497 5.24999 10.2256 5.4697 10.5834 5.62623C10.9043 5.76667 11.2466 5.86893 11.5996 5.93099C11.9975 6.00094 12.4121 6.00094 13.2441 6.00094H30.6062C32.842 6.00094 33.9612 6.00094 34.816 6.37398C35.5687 6.70243 36.181 7.22707 36.5645 7.8717C37 8.60383 37 9.56135 37 11.4763V24.5062C37 26.4212 37 27.3801 36.5645 28.1122C36.181 28.7568 35.5674 29.2806 34.8148 29.609C33.9591 29.9824 32.8406 29.9824 30.6004 29.9824H7.40039C5.16018 29.9824 4.03924 29.9824 3.18359 29.609C2.43095 29.2806 1.81947 28.7568 1.43597 28.1122C1 27.3794 1 26.4193 1 24.5006V4.85121C1 3.0257 1 2.11313 1.43691 1.64434C1.81689 1.23663 2.39287 0.999446 3.00195 1.00001C3.7023 1.00066 4.53488 1.57108 6.19922 2.71147Z" fill="#090909" stroke="#090909" stroke-width="2" stroke-linecap="round" stroke-linejoin="round"/>
<rect x="1" y="40.9824" width="36" height="92" rx="4" fill="#090909"/>
</svg>
